Coordinates
version=1
nRows=26
nColumns=22
inDegrees=yes

Units are S.I. units (second, meters, Newtons, ...)
If the header above contains a line with 'inDegrees', this indicates whether rotational values are in degrees (yes) or radians (no).

endheader
time	pelvis_tilt	pelvis_list	pelvis_rotation	pelvis_tx	pelvis_ty	pelvis_tz	hip_flexion_r	hip_adduction_r	hip_rotation_r	knee_angle_r	ankle_angle_r	subtalar_angle_r	hip_flexion_l	hip_adduction_l	hip_rotation_l	knee_angle_l	ankle_angle_l	subtalar_angle_l	lumbar_extension	lumbar_bending	lumbar_rotation
      5.80000000	     -3.61551342	      5.28943837	   -119.92187179	      0.73218206	      0.94460419	      0.70028549	     29.16949419	      2.16427063	    -26.34018322	    -25.28419024	     -1.09715709	     -4.51383963	     -5.50964987	     -8.39796643	      1.54192466	    -30.74738094	     10.08592642	     17.72023607	      0.02767218	      9.54510114	    -16.28648294
      5.81000000	     -3.52122934	      5.30281888	   -120.51756365	      0.72569427	      0.94578044	      0.70647976	     28.84652720	      2.51046185	    -25.68840331	    -25.48088200	     -0.88372738	     -4.89046662	     -4.60170941	     -8.33242065	      1.62993002	    -32.93956225	      8.64817933	     18.03589780	      0.08413653	      9.55506104	    -16.05595281
      5.82000000	     -3.42567333	      5.30627916	   -121.09619528	      0.71926282	      0.94696662	      0.71256079	     28.46503328	      2.85009930	    -25.08037125	    -25.59455183	     -0.62245594	     -5.23177667	     -3.59378135	     -8.26396379	      1.73930016	    -35.24429348	      7.27024970	     18.20462394	      0.13164925	      9.55251476	    -15.82004455
      5.83000000	     -3.31959258	      5.31582451	   -121.63388894	      0.71295539	      0.94807100	      0.71847529	     28.09157604	      3.15276133	    -24.53129311	    -25.71000188	     -0.27441014	     -5.62487263	     -2.45862079	     -8.19247854	      1.90543356	    -37.66121676	      6.01771805	     18.20429674	      0.18520618	      9.53570861	    -15.66830124
      5.84000000	     -3.28624548	      5.33126669	   -122.19566018	      0.70663777	      0.94917469	      0.72421054	     27.64149296	      3.53692837	    -23.98576479	    -25.74763273	      0.06587799	     -5.84074518	     -1.28769626	     -8.21396244	      1.98668191	    -40.14258721	      4.95029834	     18.00020391	      0.18963387	      9.58321242	    -15.48499260
      5.85000000	     -3.25573570	      5.37736230	   -122.70905012	      0.70045391	      0.95017262	      0.72977955	     27.20782744	      3.89948582	    -23.52923908	    -25.77581237	      0.49042462	     -6.02011820	     -0.01224714	     -8.25283743	      2.15160056	    -42.65575452	      4.04448750	     17.46607114	      0.21811921	      9.63924896	    -15.35459887
      5.86000000	     -3.30014513	      5.43528978	   -123.23371953	      0.69428593	      0.95114658	      0.73516356	     26.71737337	      4.33112555	    -23.10486273	    -25.75717326	      0.90214944	     -6.08396518	      1.26842986	     -8.39019571	      2.26823341	    -45.14483942	      3.35313292	     16.73706013	      0.20210279	      9.76251145	    -15.21045998
      5.87000000	     -3.39325803	      5.52593407	   -123.74984344	      0.68813303	      0.95206695	      0.74034724	     26.19988984	      4.82050439	    -22.71497285	    -25.68390236	      1.32286434	     -6.08262082	      2.57498894	     -8.61064354	      2.39260811	    -47.55936322	      2.87508986	     15.87197542	      0.17885471	      9.93166068	    -15.07634454
      5.88000000	     -3.52803804	      5.61765619	   -124.28205715	      0.68198936	      0.95296196	      0.74532972	     25.65056548	      5.34164492	    -22.35757473	    -25.59461937	      1.73902565	     -6.03716903	      3.86202783	     -8.89614103	      2.48405037	    -49.85328685	      2.57299454	     14.81926843	      0.11900924	     10.12244974	    -14.92110707
      5.89000000	     -3.69296802	      5.72745872	   -124.81729118	      0.67584667	      0.95383654	      0.75010586	     25.07184155	      5.90966584	    -21.99283882	    -25.44693406	      2.13449538	     -5.97700113	      5.13924804	     -9.23628969	      2.59479685	    -51.98669311	      2.45593672	     13.70054577	      0.04848605	     10.33108525	    -14.76264899
      5.90000000	     -3.87170013	      5.84033862	   -125.37190972	      0.66969869	      0.95470756	      0.75467599	     24.46846860	      6.50383658	    -21.60826436	    -25.25860429	      2.50111898	     -5.91402413	      6.38678451	     -9.60828896	      2.70523243	    -53.92425061	      2.47431936	     12.50780512	     -0.03792030	     10.53335367	    -14.58358097
      5.91000000	     -4.05236531	      5.95952639	   -125.94495030	      0.66355367	      0.95557515	      0.75904100	     23.85032535	      7.11538964	    -21.20292687	    -25.02967292	      2.83428346	     -5.85807577	      7.60719537	     -9.99512926	      2.83397425	    -55.64428521	      2.58570590	     11.28837687	     -0.12940648	     10.72054369	    -14.37467713
      5.92000000	     -4.21614661	      6.06968953	   -126.56081648	      0.65740907	      0.95644515	      0.76320059	     23.22450909	      7.72661145	    -20.72958720	    -24.78113729	      3.13531416	     -5.81222170	      8.78214282	    -10.37099356	      2.95167612	    -57.12510979	      2.76747812	     10.05820506	     -0.23189419	     10.87038586	    -14.13909047
      5.93000000	     -4.35102612	      6.17359179	   -127.21692577	      0.65128967	      0.95731428	      0.76717463	     22.59862810	      8.32205582	    -20.20525394	    -24.51066786	      3.41348344	     -5.77663885	      9.91085646	    -10.70879158	      3.08765232	    -58.35060960	      3.00573629	      8.86142298	     -0.33273569	     10.97567764	    -13.84149419
      5.94000000	     -4.45550559	      6.27127189	   -127.90904960	      0.64522106	      0.95817375	      0.77097619	     21.98065945	      8.89531600	    -19.62239408	    -24.23178795	      3.66150226	     -5.74874752	     10.99526473	    -11.00261513	      3.24535727	    -59.32137604	      3.28996666	      7.75503084	     -0.43028727	     11.04011853	    -13.52634722
      5.95000000	     -4.52763738	      6.35883762	   -128.63486995	      0.63922897	      0.95902258	      0.77463506	     21.37182303	      9.43429657	    -18.98957169	    -23.95332800	      3.88500650	     -5.72585265	     12.02685266	    -11.23809028	      3.43514760	    -60.03350425	      3.62535538	      6.77654231	     -0.52533442	     11.06460836	    -13.19074253
      5.96000000	     -4.56789406	      6.43830858	   -129.38651249	      0.63331770	      0.95985344	      0.77818156	     20.77178809	      9.93502160	    -18.32448065	    -23.67289613	      4.09598614	     -5.70642079	     13.00274849	    -11.41273530	      3.66250771	    -60.48578038	      4.02042270	      5.93721232	     -0.61174745	     11.05262714	    -12.83623002
      5.97000000	     -4.58313846	      6.51474021	   -130.15799828	      0.62749553	      0.96065589	      0.78162220	     20.18288121	     10.40363487	    -17.63038492	    -23.39316895	      4.29125048	     -5.69275231	     13.92402128	    -11.53588884	      3.93105016	    -60.68584611	      4.47724047	      5.27129504	     -0.68977126	     11.01698994	    -12.47654636
      5.98000000	     -4.58138782	      6.58385062	   -130.93643453	      0.62173720	      0.96141390	      0.78500796	     19.59753835	     10.83449002	    -16.94591948	    -23.12306651	      4.50541135	     -5.68040307	     14.77873679	    -11.61956579	      4.23171609	    -60.64089939	      5.01333662	      4.67431784	     -0.75636817	     10.96155702	    -12.12381282
      5.99000000	     -4.57012872	      6.68238700	   -131.71594231	      0.61604722	      0.96208232	      0.78828999	     19.04849683	     11.26437723	    -16.25233999	    -22.86254624	      4.69721704	     -5.69544272	     15.61101316	    -11.70532798	      4.57143459	    -60.38351768	      5.62685424	      4.38600778	     -0.79082841	     10.91882522	    -11.78488016
      6.00000000	     -4.55419570	      6.74690102	   -132.50959368	      0.61036696	      0.96276979	      0.79152379	     18.45111019	     11.66753581	    -15.50227197	    -22.57327632	      4.87590464	     -5.68522126	     16.33253853	    -11.76443380	      4.89754261	    -59.88087408	      6.21032451	      3.89741770	     -0.84495426	     10.84418882	    -11.46750401
      6.01000000	     -4.53999825	      6.83194758	   -133.28790891	      0.60476786	      0.96334690	      0.79467858	     17.88730485	     12.06040598	    -14.78581893	    -22.31564964	      5.07091957	     -5.68798238	     17.02605869	    -11.84119515	      5.24704047	    -59.20123032	      6.87085574	      3.50003036	     -0.88146779	     10.78706227	    -11.17285792
      6.02000000	     -4.52016917	      6.95410501	   -134.06473734	      0.59921161	      0.96380448	      0.79774577	     17.37266958	     12.45825692	    -14.08872055	    -22.08750726	      5.26759221	     -5.70592426	     17.70475098	    -11.95463434	      5.59492854	    -58.35248302	      7.57664877	      3.20523933	     -0.87909192	     10.75234695	    -10.87934613
      6.03000000	     -4.51118432	      7.01982556	   -134.85077603	      0.59367496	      0.96430899	      0.80079157	     16.79205677	     12.81879208	    -13.33735929	    -21.85020183	      5.45887953	     -5.69910329	     18.24888952	    -12.04682596	      5.90502723	    -57.30287129	      8.20904515	      2.62952668	     -0.92545715	     10.68239488	    -10.60655763
      6.04000000	     -4.47538884	      7.13456145	   -135.64109599	      0.58821900	      0.96467460	      0.80374230	     16.28728690	     13.18095497	    -12.57654884	    -21.63989552	      5.63243643	     -5.70574404	     18.81942923	    -12.16852795	      6.20438719	    -56.13264944	      8.81982198	      2.19484403	     -0.91195216	     10.63290685	    -10.33357066
      6.05000000	     -4.43018417	      7.23746604	   -136.43880236	      0.58284128	      0.96499007	      0.80666861	     15.79911559	     13.50842542	    -11.81337159	    -21.47153027	      5.82193644	     -5.70612518	     19.33396071	    -12.27780558	      6.48420789	    -54.82958345	      9.39745327	      1.68724476	     -0.89970441	     10.57611433	    -10.05952740
